# File created by Blade
# Date/Time:  Thu Sep 25 17:33:50 2014
# Frame Rate: 120.000 fps
#------------------------------------------------------
:FULLY-SPECIFIED
:DEGREES
1166
root -5.620979 33.350175 -0.521506 -19.994613 -1.102037 34.241948
Spine 21.593237 20.680784 -28.707900
Head -2.901898 -10.690738 -4.536444
LeftShoulder -5.975528 12.732714 24.625511
LeftArm 63.758003 2.643101 -30.340305
LeftForeArm 41.342686 0.000000 124.095493
LeftHand -26.523808 -0.000000 16.057147
LeftHandThumb1 -26.253704 0.000000 33.147579
RightShoulder -6.135967 19.623048 -22.217642
RightArm 35.365671 -33.754407 42.279093
RightForeArm -27.602199 0.000000 127.674026
RightHand 4.097156 -0.000000 -44.882421
RightHandThumb1 -24.326973 -0.000000 -32.862282
LeftUpLeg -63.981722 41.271884 45.854555
LeftLeg 8.313621 -0.000000 -0.000000
LeftFoot 22.633053 39.483982 -1.852287
LeftToeBase 3.040797 -0.000000 -0.000000
RightUpLeg 3.058514 -5.029991 -34.857985
RightLeg 35.555583 -0.000000 -0.000000
RightFoot -24.958908 -5.015472 -5.845662
RightToeBase -1.816502 -0.000000 0.000000
1167
root -5.691563 33.398538 -0.505578 -19.544916 -0.469234 34.382602
Spine 20.996921 19.419563 -29.369743
Head -2.528019 -9.820724 -4.744826
LeftShoulder -6.269861 12.800958 24.445963
LeftArm 64.208263 2.142523 -29.203666
LeftForeArm 40.864534 -0.000000 123.913754
LeftHand -26.891522 -0.000000 16.965801
LeftHandThumb1 -26.253704 0.000000 33.147579
RightShoulder -6.324176 19.461092 -22.575634
RightArm 34.893042 -33.970748 43.309343
RightForeArm -27.970215 -0.000000 127.905015
RightHand 4.363171 -0.000000 -44.731482
RightHandThumb1 -24.326973 -0.000000 -32.862282
LeftUpLeg -62.092668 41.955798 46.683723
LeftLeg 8.353606 -0.000000 -0.000000
LeftFoot 23.290554 38.906113 -1.456077
LeftToeBase 3.654747 -0.000000 -0.000000
RightUpLeg 3.344498 -5.801334 -35.172124
RightLeg 35.093424 -0.000000 -0.000000
RightFoot -24.974253 -4.695797 -5.335735
RightToeBase -1.415362 -0.000000 0.000000
1168
root -5.760021 33.435183 -0.500956 -18.921575 0.245257 34.427793
Spine 20.271783 18.104875 -29.903472
Head -2.028288 -9.125462 -4.939082
LeftShoulder -6.487411 12.856678 24.334467
LeftArm 64.768077 1.862317 -28.161240
LeftForeArm 40.576660 -0.000000 123.692826
LeftHand -27.566505 -0.000000 18.019057
LeftHandThumb1 -26.253704 0.000000 33.147579
RightShoulder -6.602359 19.252231 -22.892506
RightArm 34.493415 -34.393912 44.292386
RightForeArm -28.764034 -0.000000 128.117294
RightHand 3.791677 -0.000000 -45.037984
RightHandThumb1 -24.326973 -0.000000 -32.862282
LeftUpLeg -60.716829 42.686712 46.942892
LeftLeg 8.328189 -0.000000 -0.000000
LeftFoot 24.336444 37.884036 -0.693050
LeftToeBase 3.185813 -0.000000 -0.000000
RightUpLeg 3.525736 -6.571066 -35.330200
RightLeg 34.686024 -0.000000 -0.000000
RightFoot -24.997215 -4.605461 -4.986784
RightToeBase -1.000787 -0.000000 0.000000
1169
root -5.834597 33.463275 -0.506174 -18.215285 1.056423 34.340856
Spine 19.515566 16.947344 -30.207183
Head -1.283310 -8.747269 -5.051360
LeftShoulder -6.393318 12.778441 24.245279
LeftArm 65.270725 1.673127 -27.192096
LeftForeArm 40.273198 -0.000000 123.370959
LeftHand -28.206297 0.000000 19.311461
LeftHandThumb1 -26.253704 0.000000 33.147579
RightShoulder -6.998931 18.794662 -23.107901
RightArm 34.078457 -34.663154 45.089702
RightForeArm -29.370735 -0.000000 128.313713
RightHand 3.676634 0.000000 -45.069044
RightHandThumb1 -24.326973 -0.000000 -32.862282
LeftUpLeg -59.658377 43.240839 47.006461
LeftLeg 8.356014 -0.000000 -0.000000
LeftFoot 25.483862 36.939381 0.103573
LeftToeBase 3.115635 -0.000000 -0.000000
RightUpLeg 3.705084 -7.242952 -35.262691
RightLeg 34.273903 -0.000000 -0.000000
RightFoot -25.009968 -4.750334 -4.465144
RightToeBase -0.432985 -0.000000 0.000000
1170
root -5.903357 33.482022 -0.527019 -17.327467 1.938759 34.233169
Spine 18.687071 15.681288 -30.431886
Head -0.683682 -8.513862 -5.311301
LeftShoulder -6.388945 12.670130 24.029151
LeftArm 65.869381 1.597755 -26.279868
LeftForeArm 39.957514 -0.000000 123.045773
LeftHand -28.435491 -0.000000 20.856516
LeftHandThumb1 -26.253704 0.000000 33.147579
RightShoulder -7.546918 18.244180 -23.379127
RightArm 33.927197 -35.076514 45.792040
RightForeArm -30.223926 -0.000000 128.419247
RightHand 2.946445 -0.000000 -45.474970
RightHandThumb1 -24.326973 -0.000000 -32.862282
LeftUpLeg -58.732599 43.683385 46.944874
LeftLeg 8.296205 -0.000000 -0.000000
LeftFoot 26.412739 36.087232 0.376502
LeftToeBase 2.868746 -0.000000 -0.000000
RightUpLeg 3.735741 -7.874598 -35.092990
RightLeg 33.866813 -0.000000 -0.000000
RightFoot -24.939432 -5.174193 -4.238530
RightToeBase -0.302012 -0.000000 0.000000
1171
root -5.967684 33.489773 -0.557170 -16.335388 2.884279 34.089314
Spine 17.862391 14.536093 -30.476337
Head -0.162113 -8.342907 -5.701173
LeftShoulder -6.288250 12.390515 23.748584
LeftArm 66.506352 1.620672 -25.439284
LeftForeArm 39.600581 -0.000000 122.732046
LeftHand -28.578136 -0.000000 21.801610
LeftHandThumb1 -26.253704 0.000000 33.147579
RightShoulder -8.219054 17.822065 -23.788760
RightArm 33.308319 -35.575017 46.775799
RightForeArm -30.912608 -0.000000 128.538713
RightHand 2.753849 -0.000000 -45.577370
RightHandThumb1 -24.326973 -0.000000 -32.862282
LeftUpLeg -57.946871 43.910162 46.841223
LeftLeg 8.261337 -0.000000 -0.000000
LeftFoot 27.455472 35.130247 1.228952
LeftToeBase 3.411237 -0.000000 -0.000000
RightUpLeg 3.658565 -8.480946 -34.825776
RightLeg 33.527964 -0.000000 -0.000000
RightFoot -24.947011 -5.658855 -3.815685
RightToeBase -0.106518 -0.000000 0.000000
1172
root -6.036734 33.489748 -0.588396 -15.220429 3.888228 33.845306
Spine 16.866631 13.322057 -30.386518
Head 0.500852 -8.300076 -6.121823
LeftShoulder -6.297081 12.545213 23.212721
LeftArm 67.525534 1.362377 -24.404790
LeftForeArm 39.591831 -0.000000 122.254837
LeftHand -29.058721 -0.000000 23.173053
LeftHandThumb1 -26.253704 0.000000 33.147579
RightShoulder -8.805891 17.137007 -24.072621
RightArm 32.711767 -35.897422 47.800522
RightForeArm -31.311931 -0.000000 128.653987
RightHand 2.269802 -0.000000 -46.230260
RightHandThumb1 -24.326973 -0.000000 -32.862282
LeftUpLeg -57.288288 43.963344 46.787150
LeftLeg 8.256882 -0.000000 -0.000000
LeftFoot 27.907229 34.839666 0.970124
LeftToeBase 3.420216 -0.000000 -0.000000
RightUpLeg 3.525191 -8.988882 -34.361615
RightLeg 33.162590 -0.000000 -0.000000
RightFoot -24.957211 -6.355966 -3.515536
RightToeBase 0.083671 -0.000000 -0.000000
